<svg width="198pt" height="34pt" viewBox="0 0 198 34" xmlns="http://www.w3.org/2000/svg"><g id="fontsvg1724989776456" stroke-linecap="round" fill-rule="evenodd" fill="#808080"><path d="M 7.36 0 L 12 0 L 23.2 0.08 L 23.28 0.88 A 0.224 0.224 0 0 1 23.281 0.902 Q 23.281 1.825 17.2 12.96 Q 11.12 24.08 10.64 24.4 A 2.091 2.091 0 0 1 10.225 24.557 A 1.803 1.803 0 0 1 10 24.6 Q 9.68 24.64 9.4 24.44 Q 9.12 24.24 9.12 23.92 Q 9.12 23.221 13.456 15.254 A 598.177 598.177 0 0 1 14.8 12.8 A 2008.013 2008.013 0 0 0 16.15 10.359 Q 20.068 3.261 20.505 2.304 A 0.62 0.62 0 0 0 20.56 2.16 Q 20.56 2 11.28 2 L 2.08 2 L 2.08 3.76 L 17.04 3.76 L 17.04 4.64 A 1.453 1.453 0 0 1 16.929 5.048 Q 16.15 7.13 9.92 18.4 L 2.88 31.12 L 13.2 31.36 L 23.52 31.52 Q 23.648 32.805 23.21 33.161 A 0.595 0.595 0 0 1 22.96 33.28 Q 22.541 33.35 13.841 33.359 A 2667.52 2667.52 0 0 1 11.12 33.36 Q 0.664 33.284 0.039 32.634 A 0.129 0.129 0 0 1 0 32.56 A 1.38 1.38 0 0 1 0.111 32.173 Q 0.776 30.453 5.419 22.031 A 913.272 913.272 0 0 1 7.12 18.96 L 14.24 6 Q 11.93 6 7.242 5.841 A 540.738 540.738 0 0 1 7.2 5.84 Q 2.501 5.681 0.181 5.68 A 66.438 66.438 0 0 0 0.16 5.68 L 0 3.04 L 0 2.16 A 12.011 12.011 0 0 1 0.014 1.553 Q 0.058 0.68 0.243 0.34 A 0.454 0.454 0 0 1 0.4 0.16 Q 0.72 0 7.36 0 Z M 55.68 19.92 L 55.76 22.16 L 38.96 22.16 L 38.96 20.56 A 14.383 14.383 0 0 1 38.964 20.198 Q 38.978 19.661 39.035 19.416 A 0.631 0.631 0 0 1 39.08 19.28 Q 39.197 19.047 39.804 19.04 A 3.294 3.294 0 0 1 39.84 19.04 A 2.452 2.452 0 0 1 40.189 19.063 Q 40.581 19.119 40.761 19.317 A 0.56 0.56 0 0 1 40.88 19.52 A 0.403 0.403 0 0 0 41.159 19.71 Q 42.03 20.008 45.576 20.066 A 114.872 114.872 0 0 0 47.44 20.08 L 53.68 20.08 L 53.44 19.04 A 10.484 10.484 0 0 0 52.188 16.018 A 8.89 8.89 0 0 0 49.92 13.56 Q 47.28 11.6 44.08 11.6 Q 41.2 11.6 38.76 13.12 A 9.196 9.196 0 0 0 35.614 16.447 A 11.753 11.753 0 0 0 35.04 17.6 Q 34.32 19.28 34.32 21.04 Q 34.32 23.76 35.76 26.2 Q 37.2 28.64 39.76 29.92 A 6.118 6.118 0 0 0 41.136 30.431 Q 41.791 30.593 42.565 30.665 A 13.931 13.931 0 0 0 43.84 30.72 Q 45.941 30.72 47.47 30.195 A 6.948 6.948 0 0 0 48.32 29.84 A 21.996 21.996 0 0 0 48.679 29.643 Q 49.375 29.251 49.514 29.087 A 0.309 0.309 0 0 0 49.52 29.08 A 0.238 0.238 0 0 0 49.568 28.985 Q 49.609 28.809 49.36 28.56 A 1.179 1.179 0 0 0 49.087 28.353 A 0.928 0.928 0 0 0 48.64 28.24 Q 48.16 28.24 46.48 28.8 Q 45.09 29.242 44.249 29.335 A 3.747 3.747 0 0 1 43.84 29.36 Q 43.6 29.36 42.48 29.2 Q 38.96 28.32 37.04 25.36 Q 36.093 23.83 36.008 21.57 A 12.038 12.038 0 0 1 36 21.12 A 33.57 33.57 0 0 1 36.009 20.321 Q 36.038 19.121 36.16 18.6 A 2.627 2.627 0 0 1 36.301 18.183 Q 36.487 17.743 36.864 17.172 A 12.427 12.427 0 0 1 37.12 16.8 A 9.115 9.115 0 0 1 38.789 14.869 A 6.461 6.461 0 0 1 43.12 13.28 A 25.19 25.19 0 0 1 43.466 13.282 Q 43.894 13.288 44.115 13.31 A 1.989 1.989 0 0 1 44.2 13.32 A 0.902 0.902 0 0 1 44.356 13.356 Q 44.44 13.383 44.503 13.427 A 0.419 0.419 0 0 1 44.6 13.52 Q 44.701 13.655 44.717 13.962 A 2.313 2.313 0 0 1 44.72 14.08 Q 44.72 14.605 44.474 14.814 A 0.519 0.519 0 0 1 44.44 14.84 A 0.968 0.968 0 0 1 44.277 14.929 Q 43.996 15.056 43.407 15.197 A 15.726 15.726 0 0 1 43.04 15.28 Q 40.8 15.76 39.36 17.4 A 5.775 5.775 0 0 0 38.206 19.355 A 5.441 5.441 0 0 0 37.92 21.12 A 4.963 4.963 0 0 0 38.178 22.666 Q 38.386 23.301 38.76 23.96 Q 39.6 25.44 40.8 26.16 Q 42.086 26.887 43.177 27.106 A 4.591 4.591 0 0 0 44.08 27.2 Q 45.34 27.2 46.723 26.404 A 8.665 8.665 0 0 0 47.12 26.16 A 14.267 14.267 0 0 1 47.572 25.861 Q 48.313 25.392 48.71 25.302 A 0.774 0.774 0 0 1 48.88 25.28 A 0.489 0.489 0 0 1 49.094 25.351 Q 49.613 25.629 50.92 27 Q 52.56 28.72 52.56 29.12 A 0.726 0.726 0 0 1 52.384 29.536 Q 51.825 30.279 49.495 31.557 A 39.951 39.951 0 0 1 49.12 31.76 A 9.282 9.282 0 0 1 46.84 32.532 Q 45.544 32.8 44 32.8 A 19.67 19.67 0 0 1 42.142 32.718 Q 40.318 32.545 39.131 32.002 A 5.469 5.469 0 0 1 38.96 31.92 A 12.496 12.496 0 0 1 35.601 29.569 A 11.263 11.263 0 0 1 33.92 27.44 Q 32.16 24.56 32.16 21.28 Q 32.16 17.36 34.48 14.12 A 11.343 11.343 0 0 1 39.762 10.105 A 14.625 14.625 0 0 1 41.04 9.68 A 14.872 14.872 0 0 1 42.379 9.407 Q 43.2 9.28 43.92 9.28 Q 48.4 9.28 51.88 12.4 A 11.756 11.756 0 0 1 54.54 15.781 A 10.659 10.659 0 0 1 55.68 19.92 Z M 66 17.52 L 66 21.68 L 66 25.84 L 66 28.84 Q 66 29.664 66.054 30.19 A 5.479 5.479 0 0 0 66.08 30.4 A 4.665 4.665 0 0 0 66.111 30.593 Q 66.183 30.975 66.28 31.04 A 0.397 0.397 0 0 0 66.382 31.087 Q 66.48 31.118 66.62 31.12 A 1.396 1.396 0 0 0 66.64 31.12 Q 66.8 31.12 66.907 31.066 A 0.356 0.356 0 0 0 67 31 A 0.293 0.293 0 0 0 67.052 30.921 Q 67.145 30.727 67.238 30.169 A 10.878 10.878 0 0 0 67.24 30.16 A 7.137 7.137 0 0 0 67.303 29.663 Q 67.36 29.065 67.36 28.24 L 67.36 24.56 L 67.36 18 L 72 14.48 Q 77.416 10.418 78.154 10.4 A 0.266 0.266 0 0 1 78.16 10.4 Q 78.88 10.4 78.88 12.48 Q 78.88 12.8 78.84 13.52 Q 78.8 14.24 78.8 14.72 L 78.72 18.72 L 76.16 18.8 L 74.72 18.8 A 5.503 5.503 0 0 1 74.317 18.787 Q 73.505 18.727 73.44 18.4 A 0.771 0.771 0 0 1 73.375 18.22 A 0.653 0.653 0 0 1 73.36 18.08 A 1.064 1.064 0 0 1 73.982 17.063 Q 74.498 16.8 75.44 16.8 L 76.8 16.8 L 76.8 13.6 L 75.44 14.64 Q 74.766 15.164 72.201 17.089 A 1506.211 1506.211 0 0 1 71.84 17.36 L 69.52 19.04 L 69.36 26.08 L 69.28 33.04 L 64.08 33.04 L 63.92 21.92 L 63.92 18 Q 63.92 10.72 64.32 10.48 A 1.145 1.145 0 0 1 64.623 10.348 Q 65.142 10.192 66.243 10.165 A 19.812 19.812 0 0 1 66.72 10.16 A 11.37 11.37 0 0 1 67.4 10.179 Q 68.376 10.238 68.8 10.48 Q 69.285 10.757 69.47 11.453 A 2.909 2.909 0 0 1 69.52 11.68 A 7.965 7.965 0 0 0 69.555 11.784 Q 69.609 11.939 69.64 12 A 0.068 0.068 0 0 0 69.686 12.036 Q 69.749 12.053 69.88 12 Q 70.077 11.921 70.467 11.611 A 8.22 8.22 0 0 0 70.48 11.6 A 0.769 0.769 0 0 1 70.55 11.538 Q 70.589 11.507 70.629 11.486 A 0.457 0.457 0 0 1 70.64 11.48 Q 70.715 11.443 70.79 11.37 A 0.883 0.883 0 0 0 70.8 11.36 Q 72.08 10.48 72.88 10.48 Q 73.515 10.48 73.646 10.984 A 1.179 1.179 0 0 1 73.68 11.28 A 1.04 1.04 0 0 1 73.586 11.694 Q 73.413 12.093 72.92 12.56 Q 72.338 13.111 71.498 13.733 A 25.088 25.088 0 0 1 70.96 14.12 Q 69.811 14.925 69.615 15.032 A 0.452 0.452 0 0 1 69.6 15.04 Q 68.72 15.68 68.24 15.68 A 0.69 0.69 0 0 1 67.603 15.266 Q 67.426 14.932 67.378 14.331 A 6.159 6.159 0 0 1 67.36 13.84 A 5.368 5.368 0 0 0 67.337 13.317 Q 67.231 12.24 66.64 12.24 A 1.161 1.161 0 0 0 66.515 12.246 Q 66.378 12.261 66.294 12.311 A 0.323 0.323 0 0 0 66.28 12.32 Q 66.16 12.4 66.08 12.96 Q 66 13.52 66 14.52 L 66 17.52 Z M 152.24 17.52 L 152.24 21.68 L 152.24 25.84 L 152.24 28.84 Q 152.24 29.664 152.294 30.19 A 5.479 5.479 0 0 0 152.32 30.4 A 4.665 4.665 0 0 0 152.351 30.593 Q 152.423 30.975 152.52 31.04 A 0.397 0.397 0 0 0 152.622 31.087 Q 152.72 31.118 152.86 31.12 A 1.396 1.396 0 0 0 152.88 31.12 Q 153.04 31.12 153.147 31.066 A 0.356 0.356 0 0 0 153.24 31 A 0.293 0.293 0 0 0 153.292 30.921 Q 153.385 30.727 153.478 30.169 A 10.878 10.878 0 0 0 153.48 30.16 A 7.137 7.137 0 0 0 153.543 29.663 Q 153.6 29.065 153.6 28.24 L 153.6 24.56 L 153.6 18 L 158.24 14.48 Q 163.656 10.418 164.394 10.4 A 0.266 0.266 0 0 1 164.4 10.4 Q 165.12 10.4 165.12 12.48 Q 165.12 12.8 165.08 13.52 Q 165.04 14.24 165.04 14.72 L 164.96 18.72 L 162.4 18.8 L 160.96 18.8 A 5.503 5.503 0 0 1 160.557 18.787 Q 159.745 18.727 159.68 18.4 A 0.771 0.771 0 0 1 159.615 18.22 A 0.653 0.653 0 0 1 159.6 18.08 A 1.064 1.064 0 0 1 160.222 17.063 Q 160.738 16.8 161.68 16.8 L 163.04 16.8 L 163.04 13.6 L 161.68 14.64 Q 161.006 15.164 158.441 17.089 A 1506.211 1506.211 0 0 1 158.08 17.36 L 155.76 19.04 L 155.6 26.08 L 155.52 33.04 L 150.32 33.04 L 150.16 21.92 L 150.16 18 Q 150.16 10.72 150.56 10.48 A 1.145 1.145 0 0 1 150.863 10.348 Q 151.382 10.192 152.483 10.165 A 19.812 19.812 0 0 1 152.96 10.16 A 11.37 11.37 0 0 1 153.64 10.179 Q 154.616 10.238 155.04 10.48 Q 155.525 10.757 155.71 11.453 A 2.909 2.909 0 0 1 155.76 11.68 A 7.965 7.965 0 0 0 155.795 11.784 Q 155.849 11.939 155.88 12 A 0.068 0.068 0 0 0 155.926 12.036 Q 155.989 12.053 156.12 12 Q 156.317 11.921 156.707 11.611 A 8.22 8.22 0 0 0 156.72 11.6 A 0.769 0.769 0 0 1 156.79 11.538 Q 156.829 11.507 156.869 11.486 A 0.457 0.457 0 0 1 156.88 11.48 Q 156.955 11.443 157.03 11.37 A 0.883 0.883 0 0 0 157.04 11.36 Q 158.32 10.48 159.12 10.48 Q 159.755 10.48 159.886 10.984 A 1.179 1.179 0 0 1 159.92 11.28 A 1.04 1.04 0 0 1 159.826 11.694 Q 159.653 12.093 159.16 12.56 Q 158.578 13.111 157.738 13.733 A 25.088 25.088 0 0 1 157.2 14.12 Q 156.051 14.925 155.855 15.032 A 0.452 0.452 0 0 1 155.84 15.04 Q 154.96 15.68 154.48 15.68 A 0.69 0.69 0 0 1 153.843 15.266 Q 153.666 14.932 153.618 14.331 A 6.159 6.159 0 0 1 153.6 13.84 A 5.368 5.368 0 0 0 153.577 13.317 Q 153.471 12.24 152.88 12.24 A 1.161 1.161 0 0 0 152.755 12.246 Q 152.618 12.261 152.534 12.311 A 0.323 0.323 0 0 0 152.52 12.32 Q 152.4 12.4 152.32 12.96 Q 152.24 13.52 152.24 14.52 L 152.24 17.52 Z M 108.32 9.84 L 110.96 9.84 L 110.96 33.28 L 108.32 33.28 A 48.363 48.363 0 0 1 107.655 33.276 Q 106.378 33.258 106.061 33.167 A 0.555 0.555 0 0 1 106.04 33.16 Q 105.722 33.054 105.623 32.481 A 2.65 2.65 0 0 1 105.6 32.32 L 105.52 31.44 L 103.84 32.16 Q 101.815 32.985 99.087 33.037 A 19.415 19.415 0 0 1 98.72 33.04 A 16.074 16.074 0 0 1 97.209 32.973 Q 96.472 32.903 95.845 32.761 A 7.654 7.654 0 0 1 95.12 32.56 A 10.757 10.757 0 0 1 89.434 28.29 A 13.26 13.26 0 0 1 89.4 28.24 A 12.296 12.296 0 0 1 87.448 23.778 A 11.733 11.733 0 0 1 87.2 21.36 A 11.302 11.302 0 0 1 87.301 19.816 A 9.049 9.049 0 0 1 87.52 18.72 A 11.769 11.769 0 0 1 89.965 13.806 Q 91.928 11.51 95.2 10.32 Q 96.354 9.871 97.97 9.782 A 15.076 15.076 0 0 1 98.8 9.76 A 16.521 16.521 0 0 1 100.71 9.863 Q 101.672 9.976 102.471 10.21 A 7.084 7.084 0 0 1 103.76 10.72 Q 105.2 11.36 105.28 11.36 A 0.177 0.177 0 0 0 105.42 11.283 Q 105.526 11.149 105.581 10.787 A 3.749 3.749 0 0 0 105.6 10.64 A 1.295 1.295 0 0 1 105.663 10.38 Q 105.715 10.235 105.802 10.137 A 0.586 0.586 0 0 1 106.08 9.96 Q 106.479 9.84 108.308 9.84 A 35.324 35.324 0 0 1 108.32 9.84 Z M 194.56 9.84 L 197.2 9.84 L 197.2 33.28 L 194.56 33.28 A 48.363 48.363 0 0 1 193.895 33.276 Q 192.618 33.258 192.301 33.167 A 0.555 0.555 0 0 1 192.28 33.16 Q 191.962 33.054 191.863 32.481 A 2.65 2.65 0 0 1 191.84 32.32 L 191.76 31.44 L 190.08 32.16 Q 188.055 32.985 185.327 33.037 A 19.415 19.415 0 0 1 184.96 33.04 A 16.074 16.074 0 0 1 183.449 32.973 Q 182.712 32.903 182.085 32.761 A 7.654 7.654 0 0 1 181.36 32.56 A 10.757 10.757 0 0 1 175.674 28.29 A 13.26 13.26 0 0 1 175.64 28.24 A 12.296 12.296 0 0 1 173.688 23.778 A 11.733 11.733 0 0 1 173.44 21.36 A 11.302 11.302 0 0 1 173.541 19.816 A 9.049 9.049 0 0 1 173.76 18.72 A 11.769 11.769 0 0 1 176.205 13.806 Q 178.168 11.51 181.44 10.32 Q 182.594 9.871 184.21 9.782 A 15.076 15.076 0 0 1 185.04 9.76 A 16.521 16.521 0 0 1 186.95 9.863 Q 187.912 9.976 188.711 10.21 A 7.084 7.084 0 0 1 190 10.72 Q 191.44 11.36 191.52 11.36 A 0.177 0.177 0 0 0 191.66 11.283 Q 191.766 11.149 191.821 10.787 A 3.749 3.749 0 0 0 191.84 10.64 A 1.295 1.295 0 0 1 191.903 10.38 Q 191.955 10.235 192.042 10.137 A 0.586 0.586 0 0 1 192.32 9.96 Q 192.719 9.84 194.548 9.84 A 35.324 35.324 0 0 1 194.56 9.84 Z M 104.72 13.84 A 15.359 15.359 0 0 0 102.365 12.621 Q 100.951 12.048 99.605 11.895 A 8.574 8.574 0 0 0 98.64 11.84 Q 97.12 11.84 95.68 12.4 A 9.519 9.519 0 0 0 90.021 17.998 A 12.328 12.328 0 0 0 89.6 19.28 A 10.786 10.786 0 0 0 89.383 20.782 A 9.363 9.363 0 0 0 89.36 21.44 A 9.168 9.168 0 0 0 91.883 27.785 A 12.012 12.012 0 0 0 92.16 28.08 A 9.431 9.431 0 0 0 95.504 30.348 A 9.209 9.209 0 0 0 98.88 30.96 A 9.111 9.111 0 0 0 102.305 30.264 Q 103.487 29.788 104.682 28.986 A 15.849 15.849 0 0 0 104.72 28.96 A 12.016 12.016 0 0 1 105.281 28.617 Q 106.159 28.115 106.653 28.082 A 1.015 1.015 0 0 1 106.72 28.08 Q 107.68 28.08 107.68 30 A 4.365 4.365 0 0 0 107.701 30.445 Q 107.795 31.36 108.32 31.36 A 0.441 0.441 0 0 0 108.696 31.142 Q 108.913 30.824 108.96 30.04 A 22.311 22.311 0 0 0 108.987 29.338 Q 109.04 27.37 109.04 21.52 A 1017.064 1017.064 0 0 0 109.037 19.028 Q 109.025 14.08 108.96 13.04 A 5.214 5.214 0 0 0 108.918 12.621 Q 108.794 11.76 108.4 11.76 A 0.608 0.608 0 0 0 107.856 12.092 Q 107.689 12.372 107.627 12.886 A 4.867 4.867 0 0 0 107.6 13.2 A 5.455 5.455 0 0 1 107.52 13.744 Q 107.413 14.269 107.215 14.533 A 0.6 0.6 0 0 1 106.72 14.8 A 1.128 1.128 0 0 1 106.409 14.747 Q 105.921 14.604 105.077 14.072 A 16.679 16.679 0 0 1 104.72 13.84 Z M 190.96 13.84 A 15.359 15.359 0 0 0 188.605 12.621 Q 187.191 12.048 185.845 11.895 A 8.574 8.574 0 0 0 184.88 11.84 Q 183.36 11.84 181.92 12.4 A 9.519 9.519 0 0 0 176.261 17.998 A 12.328 12.328 0 0 0 175.84 19.28 A 10.786 10.786 0 0 0 175.623 20.782 A 9.363 9.363 0 0 0 175.6 21.44 A 9.168 9.168 0 0 0 178.123 27.785 A 12.012 12.012 0 0 0 178.4 28.08 A 9.431 9.431 0 0 0 181.744 30.348 A 9.209 9.209 0 0 0 185.12 30.96 A 9.111 9.111 0 0 0 188.545 30.264 Q 189.727 29.788 190.922 28.986 A 15.849 15.849 0 0 0 190.96 28.96 A 12.016 12.016 0 0 1 191.521 28.617 Q 192.399 28.115 192.893 28.082 A 1.015 1.015 0 0 1 192.96 28.08 Q 193.92 28.08 193.92 30 A 4.365 4.365 0 0 0 193.941 30.445 Q 194.035 31.36 194.56 31.36 A 0.441 0.441 0 0 0 194.936 31.142 Q 195.153 30.824 195.2 30.04 A 22.311 22.311 0 0 0 195.227 29.338 Q 195.28 27.37 195.28 21.52 A 1017.064 1017.064 0 0 0 195.277 19.028 Q 195.265 14.08 195.2 13.04 A 5.214 5.214 0 0 0 195.158 12.621 Q 195.034 11.76 194.64 11.76 A 0.608 0.608 0 0 0 194.096 12.092 Q 193.929 12.372 193.867 12.886 A 4.867 4.867 0 0 0 193.84 13.2 A 5.455 5.455 0 0 1 193.76 13.744 Q 193.653 14.269 193.455 14.533 A 0.6 0.6 0 0 1 192.96 14.8 A 1.128 1.128 0 0 1 192.649 14.747 Q 192.161 14.604 191.317 14.072 A 16.679 16.679 0 0 1 190.96 13.84 Z M 130.32 10.72 L 131.12 10.72 A 12.167 12.167 0 0 1 134.837 11.418 A 10.322 10.322 0 0 1 138.12 13.36 Q 140.96 15.84 141.84 20.08 A 11.299 11.299 0 0 1 142.027 21.225 A 8.66 8.66 0 0 1 142.08 22.16 Q 142.08 25.36 140.28 28.24 Q 138.48 31.12 135.52 32.48 A 10.719 10.719 0 0 1 131.316 33.578 A 12.745 12.745 0 0 1 130.56 33.6 Q 127.36 33.6 124.6 31.92 A 11.301 11.301 0 0 1 120.332 27.224 A 13.483 13.483 0 0 1 120.32 27.2 Q 119.2 25.12 119.2 21.68 Q 119.2 19.76 119.68 18.48 A 12.442 12.442 0 0 1 122.159 14.238 Q 124.134 12.065 127.188 11.044 A 14.603 14.603 0 0 1 127.2 11.04 A 6.639 6.639 0 0 1 127.986 10.871 Q 128.81 10.741 129.942 10.723 A 23.44 23.44 0 0 1 130.32 10.72 Z M 131.189 12.829 A 15.282 15.282 0 0 0 130.24 12.8 Q 128.652 12.8 127.776 13.074 A 2.899 2.899 0 0 0 127.44 13.2 Q 124.72 14.24 122.96 16.72 A 9.408 9.408 0 0 0 121.427 20.062 A 8.933 8.933 0 0 0 121.2 22.08 Q 121.2 23.04 121.44 24 A 9.448 9.448 0 0 0 123.547 28.251 Q 125.233 30.157 128.08 31.12 A 5.665 5.665 0 0 0 129.181 31.414 Q 129.698 31.5 130.285 31.516 A 9.959 9.959 0 0 0 130.56 31.52 A 8.654 8.654 0 0 0 135.866 29.691 A 11.929 11.929 0 0 0 137.08 28.64 A 10.456 10.456 0 0 0 139.011 26.093 A 8.458 8.458 0 0 0 140 22.08 Q 140 20.96 139.84 20.4 Q 138.88 15.92 134.72 13.68 Q 133.277 12.959 131.189 12.829 Z M 97.356 13.464 A 28.759 28.759 0 0 0 96.88 13.6 A 8.24 8.24 0 0 0 95.009 14.446 A 9.933 9.933 0 0 0 93.08 16 Q 92.328 16.77 91.843 17.571 A 5.947 5.947 0 0 0 91.04 19.68 Q 90.88 20.64 90.88 21.2 Q 90.88 24.32 93 26.8 Q 95.12 29.28 98.08 29.36 Q 99.083 29.427 99.415 29.354 A 0.458 0.458 0 0 0 99.52 29.32 A 0.255 0.255 0 0 0 99.546 29.305 Q 99.714 29.195 99.75 28.799 A 2.639 2.639 0 0 0 99.76 28.56 Q 99.76 28 99.52 27.8 A 0.547 0.547 0 0 0 99.469 27.763 Q 99.263 27.628 98.754 27.512 A 8.194 8.194 0 0 0 98.4 27.44 A 8.573 8.573 0 0 1 97.958 27.339 A 6.866 6.866 0 0 1 94.48 25.28 A 6.992 6.992 0 0 1 94.166 24.908 A 5.359 5.359 0 0 1 92.96 21.52 Q 92.96 20.24 93.6 18.96 Q 94.425 17.255 96.347 16.231 A 10.533 10.533 0 0 1 98.32 15.44 Q 99.271 15.155 99.657 14.757 A 0.842 0.842 0 0 0 99.92 14.16 Q 99.92 13.86 99.764 13.685 A 0.637 0.637 0 0 0 99.52 13.52 A 2.623 2.623 0 0 0 99.321 13.399 Q 99.158 13.31 99.005 13.261 A 1.191 1.191 0 0 0 98.64 13.2 A 1.472 1.472 0 0 0 98.456 13.214 Q 98.094 13.261 97.356 13.464 Z M 183.596 13.464 A 28.759 28.759 0 0 0 183.12 13.6 A 8.24 8.24 0 0 0 181.249 14.446 A 9.933 9.933 0 0 0 179.32 16 Q 178.568 16.77 178.083 17.571 A 5.947 5.947 0 0 0 177.28 19.68 Q 177.12 20.64 177.12 21.2 Q 177.12 24.32 179.24 26.8 Q 181.36 29.28 184.32 29.36 Q 185.323 29.427 185.655 29.354 A 0.458 0.458 0 0 0 185.76 29.32 A 0.255 0.255 0 0 0 185.786 29.305 Q 185.954 29.195 185.99 28.799 A 2.639 2.639 0 0 0 186 28.56 Q 186 28 185.76 27.8 A 0.547 0.547 0 0 0 185.709 27.763 Q 185.503 27.628 184.994 27.512 A 8.194 8.194 0 0 0 184.64 27.44 A 8.573 8.573 0 0 1 184.198 27.339 A 6.866 6.866 0 0 1 180.72 25.28 A 6.992 6.992 0 0 1 180.406 24.908 A 5.359 5.359 0 0 1 179.2 21.52 Q 179.2 20.24 179.84 18.96 Q 180.665 17.255 182.587 16.231 A 10.533 10.533 0 0 1 184.56 15.44 Q 185.511 15.155 185.897 14.757 A 0.842 0.842 0 0 0 186.16 14.16 Q 186.16 13.86 186.004 13.685 A 0.637 0.637 0 0 0 185.76 13.52 A 2.623 2.623 0 0 0 185.561 13.399 Q 185.398 13.31 185.245 13.261 A 1.191 1.191 0 0 0 184.88 13.2 A 1.472 1.472 0 0 0 184.696 13.214 Q 184.334 13.261 183.596 13.464 Z M 128.093 14.777 A 8.74 8.74 0 0 0 126.88 15.28 A 8.178 8.178 0 0 0 125.804 15.988 A 9.256 9.256 0 0 0 124.08 17.76 Q 123.28 18.96 123.08 19.64 A 2.186 2.186 0 0 0 123.058 19.719 Q 122.924 20.248 122.891 21.361 A 26.859 26.859 0 0 0 122.88 22.16 Q 122.88 24 123.04 24.64 A 2.305 2.305 0 0 0 123.136 24.93 Q 123.368 25.515 124 26.4 A 6.755 6.755 0 0 0 125.313 27.843 A 9.135 9.135 0 0 0 126.8 28.84 Q 128.64 29.84 130 29.84 Q 131.36 29.84 131.36 28.64 A 0.796 0.796 0 0 0 131.354 28.542 Q 131.314 28.22 131 28.08 Q 130.707 27.95 129.596 27.714 A 49.3 49.3 0 0 0 129.04 27.6 A 3.88 3.88 0 0 1 128.323 27.327 Q 127.462 26.901 126.56 26 A 7.186 7.186 0 0 1 125.874 25.211 A 5.137 5.137 0 0 1 124.8 22.08 A 4.864 4.864 0 0 1 125.171 20.215 A 6.018 6.018 0 0 1 126.04 18.76 Q 127.28 17.2 129.36 16.56 A 11.297 11.297 0 0 0 129.819 16.397 Q 131.28 15.838 131.28 15.28 A 0.634 0.634 0 0 0 131.079 14.794 Q 130.743 14.48 129.84 14.48 A 4.836 4.836 0 0 0 129.407 14.5 Q 128.775 14.557 128.093 14.777 Z" vector-effect="non-scaling-stroke"/></g></svg>